<?xml version="1.0" encoding="UTF-8"?>
<svg id="Layer_1" xmlns="http://www.w3.org/2000/svg" version="1.1" viewBox="0 0 340 430">
  <!-- Generator: Adobe Illustrator 29.0.1, SVG Export Plug-In . SVG Version: 2.1.0 Build 192)  -->
  <defs>
    <style>
      .st0 {
        fill: #fffcf2;
      }

      .st1 {
        fill: #6578b1;
      }
    </style>
  </defs>
  <path class="st0" d="M219.56,168.81c4.42,26.3-13.39,51.29-39.69,55.71-26.3,4.42-51.29-13.39-55.71-39.69-4.42-26.3,13.39-51.29,39.69-55.71,26.3-4.42,51.29,13.39,55.71,39.69Z"/>
  <path class="st0" d="M141.95,2.89l-.87.15c-43.58,7.55-81.98,31.57-108.14,67.65C6.76,106.76-4.15,150.73,2.2,194.48c.2,1.42.41,2.78.65,4.18,5.52,32.36,22.03,63.14,46.48,86.68l141.87,136.61c6.18,5.96,14.59,8.57,23.08,7.14,8.51-1.43,15.62-6.66,19.52-14.37l88.38-174.68c14.34-28.35,19.98-59.47,16.29-89.97-.31-2.57-.68-5.2-1.15-7.99C321.83,49.84,234.18-12.6,141.95,2.89ZM328.18,151.32c3.5,28.85-2.12,58.1-15.24,84.03l-88.4,174.68c-2.51,4.97-7.07,8.01-11.98,8.83s-10.2-.54-14.19-4.39L56.51,277.88c-22.6-21.76-38.17-50.03-43.45-80.95-.22-1.31-.42-2.62-.63-3.94C.12,108.07,58.29,27.89,142.85,13.24l.82-.14c86.74-14.57,168.88,43.95,183.45,130.69.42,2.52.79,5.01,1.07,7.53Z"/>
  <path class="st1" d="M143.66,13.1l-.82.14C58.29,27.89.12,108.07,12.43,193c.2,1.31.41,2.63.63,3.94,5.28,30.91,20.85,59.19,43.45,80.95l141.87,136.61c3.99,3.84,9.27,5.21,14.19,4.39s9.48-3.87,11.98-8.83l88.4-174.68c13.12-25.94,18.74-55.18,15.24-84.03-.28-2.52-.65-5.02-1.07-7.53C312.54,57.05,230.4-1.47,143.66,13.1ZM179.87,224.53c-26.3,4.42-51.29-13.39-55.71-39.69-4.42-26.3,13.39-51.29,39.69-55.71,26.3-4.42,51.29,13.39,55.71,39.69,4.42,26.3-13.39,51.29-39.69,55.71Z"/>
</svg>