<?xml version="1.0" encoding="UTF-8"?>
<svg id="Layer_1" xmlns="http://www.w3.org/2000/svg" version="1.1" viewBox="0 0 335.22 433.18">
  <!-- Generator: Adobe Illustrator 29.0.1, SVG Export Plug-In . SVG Version: 2.1.0 Build 192)  -->
  <defs>
    <style>
      .st0 {
        fill: #fbfafa;
      }

      .st1 {
        fill: #6578b1;
      }
    </style>
  </defs>
  <path class="st1" d="M167.29,10.79h-.83C80.65,11.4,10.14,80.98,8.38,166.78c-.02,1.33-.03,2.66-.02,3.99.15,31.36,10.88,61.8,29.61,86.97l117.59,157.99c3.31,4.44,8.29,6.66,13.28,6.65s9.99-2.27,13.26-6.75l115.81-157.85c17.19-23.44,27.52-51.37,28.79-80.4.14-2.53.18-5.06.18-7.6-.18-87.99-71.63-159.16-159.58-158.99Z"/>
  <path class="st0" d="M167.61,30.84c-76.26,0-138.08,61.82-138.08,138.08s61.82,138.08,138.08,138.08,138.08-61.82,138.08-138.08S243.87,30.84,167.61,30.84ZM66.32,234.63c-3.85-5.91-7.17-12.17-9.94-18.72-6.29-14.87-9.48-30.68-9.48-46.98s3.19-32.11,9.48-46.98c6.08-14.37,14.79-27.28,25.88-38.37,11.09-11.09,24-19.8,38.37-25.88,14.87-6.29,30.68-9.48,46.98-9.48s32.11,3.19,46.98,9.48c14.37,6.08,27.28,14.79,38.37,25.88,11.09,11.09,19.1,24,25.18,38.37,4.45,10.51,7.96,21.5,7.96,32.79h0s-33.86,8.78-33.86,8.78h.34s-24.53-27.68-24.53-27.68c-1.46-32.28-27.92-58.01-60.56-58.01s-60.68,27.2-60.68,60.74c0,9.01,1.99,17.56,5.51,25.25,0,0,.01,0,.01,0l-29.34,45.15s-.04.06-.06.09l-16.61,25.57ZM208.16,174.85l12.4-21.49,13.38,14.95h.01s-.01.02-.01.02l-25.78,6.52ZM177.31,144.64c-1.64-2.4-4.37-3.81-7.27-3.79-2.91.04-5.6,1.52-7.18,3.95l-19.38,29.81-2.94,4.52s-6.7-12.6-10.04-18.1c-.52-.86-2.18-4.05-2.51-4.78-2.6-5.81-3.9-12.19-3.74-18.77.26-10.9,4.66-21.35,12.27-29.17,8.14-8.37,19.05-13.03,30.68-13.13,11.48-.11,22.6,4.37,30.79,12.41,6.47,6.36,10.7,14.37,12.29,23.1.52,2.84-.02,5.76-1.46,8.26l-16.23,28.06-15.28-22.37ZM181.52,181.61l-26.2,6.65,14.99-23.06,11.21,16.41ZM129,194.94l-19.37,4.91,12.36-19.01,7.02,14.1ZM278.16,217.82c-6.02,13.6-14.52,25.86-25.12,36.45-11.09,11.09-24.04,19.8-38.41,25.88-14.87,6.29-30.7,9.48-47,9.48s-32.12-3.19-46.99-9.48c-14.37-6.08-27.29-14.79-38.38-25.88-1.63-1.63-3.21-3.3-4.74-5.01v.03s18.15-27.91,18.15-27.91h0l41.24-10.03h0l10.56,20.96,10.77-17.47-4.09-8.29,18.28-4.65-11.07,19.11-10.43,18-9.63,16.66c-2.4,4.15-.98,9.46,3.17,11.87,1.37.79,2.86,1.17,4.34,1.17,3,0,5.92-1.55,7.53-4.34l11.97-20.7.08-.14,27.55-47.63h.01s92.31-23.45,92.31-23.45c-.25,9.01-1.49,17.86-3.7,26.48l-13.41-15.01-19.15,4.63,26.15,29.28Z"/>
</svg>