<?xml version="1.0" encoding="UTF-8"?>
<svg id="Layer_1" xmlns="http://www.w3.org/2000/svg" version="1.1" viewBox="0 0 1000 296.36">
  <!-- Generator: Adobe Illustrator 29.0.1, SVG Export Plug-In . SVG Version: 2.1.0 Build 192)  -->
  <defs>
    <style>
      .st0 {
        fill: #141414;
      }
    </style>
  </defs>
  <polygon class="st0" points="102.71 158.38 108.8 170.75 91.95 175.07 102.71 158.38"/>
  <polygon class="st0" points="144.74 144.62 154.48 159.04 131.69 164.87 144.74 144.62"/>
  <path class="st0" d="M164.09,146.23l-13.29-19.65c-1.41-2.09-3.8-3.34-6.31-3.33-2.53.04-4.88,1.34-6.24,3.47l-16.86,26.18-2.55,3.98s-5.82-11.08-8.74-15.9c-.45-.76-1.9-3.56-2.18-4.19-2.27-5.11-3.38-10.71-3.26-16.48.23-9.58,4.06-18.75,10.67-25.62,7.08-7.34,16.57-11.45,26.68-11.53,9.97-.09,19.65,3.84,26.78,10.9,5.62,5.58,9.3,12.62,10.67,20.28.45,2.48-.02,5.05-1.27,7.24l-14.11,24.65Z"/>
  <polygon class="st0" points="200.07 147.39 177.64 153.11 188.42 134.24 200.07 147.37 200.08 147.37 200.07 147.39"/>
  <polygon class="st0" points="215.97 143.15 216.27 143.15 216.21 143.08 215.97 143.15"/>
  <g>
    <path class="st0" d="M142.38,269.15c-66.32,0-120.08-54.28-120.08-121.25S76.07,26.65,142.38,26.65s120.08,54.28,120.08,121.25-53.76,121.25-120.08,121.25M142.24,10.45C66.91,10.45,5.84,72.12,5.84,148.18s61.07,137.73,136.4,137.73,136.4-61.66,136.4-137.73S217.57,10.45,142.24,10.45"/>
    <path class="st0" d="M68.74,183.15l-14.46,22.45c-3.33-5.2-6.23-10.69-8.63-16.45-5.48-13.07-8.25-26.94-8.25-41.26s2.77-28.19,8.25-41.25c5.28-12.63,12.85-23.96,22.49-33.7,9.64-9.74,20.87-17.38,33.38-22.71,12.94-5.53,26.68-8.33,40.86-8.33s27.92,2.8,40.86,8.33c12.49,5.34,23.72,12.98,33.36,22.71,9.66,9.74,16.62,21.08,21.9,33.7,3.87,9.23,6.92,18.87,6.92,28.79v.02l-29.21,7.62-21.27-24.23c-1.27-28.35-24.29-50.94-52.66-50.94s-52.77,23.88-52.77,53.34c0,7.91,1.73,15.42,4.78,22.17h.02l-25.51,39.65s-.03.05-.05.09"/>
    <path class="st0" d="M232.43,161.07l-16.65,4.05,22.74,25.72c-5.25,11.94-12.64,22.7-21.85,32.01-9.64,9.74-20.91,17.38-33.39,22.71-12.94,5.53-26.7,8.33-40.87,8.33s-27.94-2.8-40.87-8.33c-12.49-5.33-23.71-12.98-33.37-22.71-1.41-1.44-2.77-2.89-4.12-4.38l15.78-24.51h.02l35.85-8.8h.02l9.17,18.4,9.36-15.34-3.56-7.27,15.9-4.08-9.63,16.78-9.09,15.81-8.37,14.61c-2.09,3.66-.85,8.31,2.76,10.42,1.18.71,2.49,1.02,3.78,1.02,2.6,0,5.14-1.35,6.54-3.8l10.41-18.17.07-.12,23.96-41.84,80.28-20.58c-.23,7.92-1.29,15.69-3.21,23.24l-11.67-13.17Z"/>
    <path class="st0" d="M368.47,160.86l16.62-39.6,6.49,39.6h-23.11ZM421.72,182.36c-1.04-5.77-11.43-66.87-11.43-66.87,0,0-.52-11.01-15.06-11.01h-15.06s-11.17-.52-16.88,12.33c-5.71,12.85-28.31,65.04-28.31,65.04,0,0-2.34,13.37,5.72,15.21,8.05,1.83,13.76-1.57,15.84-6.56,2.08-4.98,3.9-10.75,3.9-10.75h33.5l1.3,7.08s2.34,12.02,13.25,10.73c10.91-1.29,14.28-9.42,13.24-15.19"/>
    <path class="st0" d="M431.89,183.37l9.61-72.99c.23-1.72.76-3.39,1.61-4.91,1.83-3.27,5.75-7.87,13.42-8.03,11.95-.26,11.95,13.9,11.17,19.41l-9.87,69.78c-.37,2.59-1.42,5.05-3.13,7.02-2.31,2.67-6.25,5.06-12.71,3.53-11.47-2.72-10.41-11.82-10.16-13.26.03-.18.06-.36.08-.54"/>
    <path class="st0" d="M469.89,183.37l9.61-72.99c.23-1.72.76-3.39,1.61-4.91,1.83-3.27,5.75-7.87,13.42-8.03,11.95-.26,11.95,13.9,11.17,19.41l-9.87,69.78c-.37,2.59-1.43,5.05-3.13,7.02-2.31,2.67-6.25,5.06-12.71,3.53-11.47-2.72-10.41-11.82-10.16-13.26.03-.18.06-.36.08-.54"/>
    <path class="st0" d="M515.73,144.43l-3.9,30.68s1.04,17.57,12.47,20.72c11.43,3.15,29.35,3.41,32.73-9.18,3.37-12.59-6.49-13.11-11.17-10.49-4.68,2.62-7.53-1.05-7.01-6.82.52-5.77,3.64-26.23,3.64-26.23h13.25s7.79-.52,8.05-8.39c.26-7.87-5.71-8.39-9.09-8.39h-9.35l.78-11.8s.78-6.82-6.49-6.03c-7.27.79-7.01,3.41-11.43,8.65-4.42,5.25-4.42,8.92-13.51,11.28-9.09,2.36-7.79,14.42,1.04,16"/>
    <path class="st0" d="M682.41,144.43l-3.9,30.68s1.04,17.57,12.47,20.72c11.43,3.15,29.35,3.41,32.73-9.18,3.37-12.59-6.49-13.11-11.17-10.49-4.68,2.62-7.53-1.05-7.01-6.82.52-5.77,3.63-26.23,3.63-26.23h13.25s7.79-.52,8.05-8.39c.26-7.87-5.72-8.39-9.09-8.39h-9.35l.78-11.8s.78-6.82-6.49-6.03c-7.27.79-7.01,3.41-11.43,8.65-4.42,5.25-4.42,8.92-13.51,11.28-9.09,2.36-7.79,14.42,1.04,16"/>
    <path class="st0" d="M840.41,183.37l9.61-72.99c.23-1.72.76-3.39,1.61-4.91,1.83-3.27,5.75-7.87,13.42-8.03,11.95-.26,11.95,13.9,11.17,19.41l-9.87,69.78c-.37,2.59-1.43,5.05-3.13,7.02-2.31,2.67-6.25,5.06-12.71,3.53-11.47-2.72-10.41-11.82-10.16-13.26.03-.18.06-.36.08-.54"/>
    <path class="st0" d="M878.4,183.37l9.61-72.99c.23-1.72.76-3.39,1.61-4.91,1.83-3.27,5.75-7.87,13.41-8.03,11.95-.26,11.95,13.9,11.17,19.41l-9.87,69.78c-.37,2.59-1.42,5.05-3.13,7.02-2.31,2.67-6.25,5.06-12.71,3.53-11.47-2.72-10.41-11.82-10.16-13.26.03-.18.06-.36.08-.54"/>
    <path class="st0" d="M806.04,161.16c-.26,8.74-5.19,20.28-14.02,18.7-8.83-1.57-9.2-12.66-8.05-18.7,0,0,2.09-19.85,12.6-19.85s9.73,11.11,9.47,19.85M822.41,125.32c-7.37-.62-9.42,9.19-9.95,13.37-.07.56-.81.71-1.08.21-6.1-10.95-9.05-16.09-26.88-13.62-18.7,2.6-25.71,23.37-26.75,41.99-1.04,18.62,7.01,27.8,22.59,30.14,11.94,1.79,19.76-7.46,22.77-11.89.33-.49,1.08-.23,1.06.36-.14,3.72.95,10.25,9.94,11.54,12.72,1.82,14.54-8.11,14.54-8.11,0,0,4.68-29.37,6.49-46.16,1.82-16.78-3.38-17.05-12.73-17.83"/>
    <path class="st0" d="M964.71,161.16c-.26,8.74-5.2,20.28-14.03,18.7-8.83-1.57-9.2-12.66-8.05-18.7,0,0,2.09-19.85,12.6-19.85s9.73,11.11,9.48,19.85M981.07,125.32c-7.37-.62-9.42,9.19-9.95,13.37-.07.56-.81.71-1.08.21-6.1-10.95-9.05-16.09-26.88-13.62-18.7,2.6-25.71,23.37-26.75,41.99-1.04,18.62,7.01,27.8,22.6,30.14,11.94,1.79,19.76-7.46,22.77-11.89.33-.49,1.08-.23,1.06.36-.14,3.72.95,10.25,9.94,11.54,12.73,1.82,14.54-8.11,14.54-8.11,0,0,4.68-29.37,6.49-46.16,1.82-16.78-3.37-17.05-12.72-17.83"/>
    <path class="st0" d="M639.1,161.16c-.26,8.74-5.19,20.28-14.03,18.7-8.83-1.57-9.2-12.66-8.05-18.7,0,0,2.09-19.85,12.6-19.85s9.73,11.11,9.48,19.85M655.46,125.32c-7.37-.62-9.41,9.19-9.95,13.37-.07.56-.81.71-1.08.21-6.1-10.95-9.05-16.09-26.88-13.62-18.7,2.6-25.71,23.37-26.75,41.99-1.04,18.62,7.01,27.8,22.6,30.14,11.94,1.79,19.76-7.46,22.77-11.89.33-.49,1.08-.23,1.06.36-.14,3.72.95,10.25,9.94,11.54,12.73,1.82,14.55-8.11,14.55-8.11,0,0,4.67-29.37,6.49-46.16,1.82-16.78-3.38-17.05-12.73-17.83"/>
    <path class="st0" d="M634.63,112.38c-3.92,0-7.1-3.44-7.1-7.69s3.18-7.69,7.1-7.69,7.1,3.44,7.1,7.69-3.18,7.69-7.1,7.69M634.63,88.54c-8.83,0-15.99,7.23-15.99,16.14s7.16,16.14,15.99,16.14,15.99-7.23,15.99-16.14-7.16-16.14-15.99-16.14"/>
  </g>
</svg>